<svg width="256" height="256" viewBox="0 0 256 256" fill="none" xmlns="http://www.w3.org/2000/svg">
<rect width="256" height="256" fill="#19191B"/>
<path fill-rule="evenodd" clip-rule="evenodd" d="M154.399 137.599C154.399 159.199 136.888 176.71 115.288 176.71C115.162 176.71 115.036 176.709 114.91 176.708H76.5621C76.4341 176.71 76.3058 176.711 76.1773 176.711C61.597 176.711 49.7773 164.891 49.7773 150.311C49.7773 135.731 61.597 123.911 76.1773 123.911C76.9935 123.911 77.801 123.948 78.5982 124.02C84.1172 109.113 98.4617 98.4878 115.288 98.4878C136.888 98.4878 154.399 115.998 154.399 137.599Z" fill="#DFB500"/>
<path fill-rule="evenodd" clip-rule="evenodd" d="M78.1328 78.9329C74.8927 78.9329 72.2661 81.5595 72.2661 84.7995V146.034C72.2661 149.275 74.8927 151.901 78.1328 151.901H177.866C181.106 151.901 183.733 149.275 183.733 146.034V84.7995C183.733 81.5595 181.106 78.9329 177.866 78.9329H78.1328ZM171.999 90.6662H83.9994V140.168H171.999V90.6662Z" fill="white"/>
<path fill-rule="evenodd" clip-rule="evenodd" d="M186.666 137.598C186.338 137.598 186.012 137.606 185.688 137.622C182.222 124.116 169.966 114.134 155.379 114.134C144.491 114.134 134.902 119.695 129.298 128.132C128.026 127.928 126.722 127.822 125.394 127.822C112.028 127.822 104.614 140.115 100.946 152.266C97.2786 164.418 89.8702 176.711 76.5049 176.711H125.394L125.609 176.709H155.004C155.129 176.711 155.254 176.711 155.379 176.711C155.504 176.711 155.629 176.711 155.754 176.709H186.603L186.666 176.709C197.466 176.709 206.222 167.954 206.222 157.154C206.222 146.353 197.466 137.598 186.666 137.598Z" fill="#FECF00"/>
</svg>
